<?xml version="1.0" encoding="utf-8"?>
<!-- Svg Vector Icons : http://www.onlinewebfonts.com/icon -->
<!DOCTYPE svg PUBLIC "-//W3C//DTD SVG 1.1//EN" "http://www.w3.org/Graphics/SVG/1.1/DTD/svg11.dtd">
<svg version="1.1" xmlns="http://www.w3.org/2000/svg" xmlns:xlink="http://www.w3.org/1999/xlink" x="0px" y="0px" viewBox="0 0 256 256" enable-background="new 0 0 256 256" xml:space="preserve">
<metadata> Svg Vector Icons : http://www.onlinewebfonts.com/icon </metadata>
<g><g><path fill="#000000" d="M200.6,10H55.4C30.3,10,10,30.3,10,55.4v145.2c0,25,20.3,45.4,45.4,45.4h145.2c25,0,45.4-20.3,45.4-45.4V55.4C246,30.3,225.7,10,200.6,10z M227.8,200.6c0,15-12.2,27.2-27.2,27.2H55.4c-15,0-27.2-12.2-27.2-27.2V55.4c0-15,12.2-27.2,27.2-27.2h145.2c15,0,27.2,12.2,27.2,27.2V200.6z"/><path fill="#000000" d="M200.4,118.9h-63.3V55.6c0-5-4-9.1-9.1-9.1s-9.1,4-9.1,9.1v63.3H55.6c-5,0-9.1,4-9.1,9.1s4,9.1,9.1,9.1h63.3v63.3c0,5,4,9.1,9.1,9.1s9.1-4,9.1-9.1v-63.3h63.3c5,0,9.1-4,9.1-9.1S205.4,118.9,200.4,118.9z"/></g></g>
</svg>