<?xml version="1.0" encoding="utf-8"?>
<!-- Svg Vector Icons : http://www.onlinewebfonts.com/icon -->
<!DOCTYPE svg PUBLIC "-//W3C//DTD SVG 1.1//EN" "http://www.w3.org/Graphics/SVG/1.1/DTD/svg11.dtd">
<svg version="1.1" xmlns="http://www.w3.org/2000/svg" xmlns:xlink="http://www.w3.org/1999/xlink" x="0px" y="0px" viewBox="0 0 256 256" enable-background="new 0 0 256 256" xml:space="preserve">
<metadata> Svg Vector Icons : http://www.onlinewebfonts.com/icon </metadata>
<g><g><g><path fill="#000000" d="M118.9,10.1C102.2,11.8,89.7,15.2,76,22c-12,5.9-20.6,12-30.4,21.5C35.5,53.3,28.2,63.4,21.9,76c-5.8,11.9-9.4,23.6-11.4,37.4c-0.8,5.4-0.8,23.6,0,29.1c3.3,22.9,12.1,43.4,26.1,60.4c32.6,39.6,86.6,53.7,134.2,35.1c30.5-11.9,55.2-36.7,67.2-67.3c4.9-12.6,7.4-24.7,7.9-38.8c1.1-31.9-10.8-62.7-33.1-85.8c-10.2-10.5-20.1-17.7-33-24c-11.6-5.7-22.3-9.1-35.3-11.1C139.9,10.3,122.9,9.7,118.9,10.1z M143.4,18.3c24,3.6,46,14.6,62.8,31.5c17.4,17.5,28.2,39.3,31.7,64.3c0.9,6.4,0.7,22.9-0.2,29.3c-2.9,18.6-10.1,36-20.9,50.5c-1.8,2.4-4.2,5.4-5.4,6.7l-2.1,2.3l-0.5-1.5c-2.5-7-7.6-14.9-13.7-21.3c-12.7-13.4-29.4-21.5-50.7-24.7c-7.8-1.2-25-1.2-32.8,0c-20.1,3-35.5,10.2-48.1,22.1c-2.6,2.5-6.1,6.4-7.8,8.6c-2.8,3.7-7.2,11.6-8.4,15.3l-0.6,1.6l-2.1-2.3c-1.2-1.3-3.6-4.3-5.4-6.7C17.7,165.4,11.6,128,22.5,94.1c11-34,37.6-60.6,71.7-71.6c7.8-2.5,14.3-3.8,25.4-5.1C123,17.1,138.9,17.6,143.4,18.3z"/><path fill="#000000" d="M119.6,53.1c-4.8,1-9.3,2.8-13.6,5.3c-4.5,2.6-11.4,9.6-14.2,14.4c-8.2,14-7.8,31.2,1.3,44.8c7.9,12,22.1,19.2,36.4,18.5c6.5-0.3,11.2-1.6,17.1-4.4c8.2-4.1,14.7-10.5,18.7-18.7c3.4-6.9,4.2-10.6,4.2-18.7c0-7.9-0.8-11.6-4-18.2C157.2,58.8,138.1,49.3,119.6,53.1z"/></g></g></g>
</svg>